# MagicaVoxel @ Ephtracy

# group
o 

# material
mtllib Brat.mtl
usemtl palette

# normals
vn -1 0 0
vn 1 0 0
vn 0 0 1
vn 0 0 -1
vn 0 -1 0
vn 0 1 0

# texcoords
vt 0.466797 0.5
vt 0.994141 0.5

# verts
v -3 0 3
v -3 0 -3
v -3 6 3
v -3 6 -3
v -2.1 1.9 0.0999999
v -2.1 1.9 -0.2
v -2.1 3.9 0.0999999
v -2.1 3.9 -0.2
v -1.2 2.1 0.0999999
v -1.2 2.1 -0.2
v -1.2 2.9 0.0999999
v -1.2 2.9 -0.2
v -0.8 1.9 0.0999999
v -0.8 1.9 -0.2
v -0.8 3.5 0.0999999
v -0.8 3.5 -0.2
v -0.4 3.3 0.0999999
v -0.4 3.3 -0.2
v -0.4 3.5 0.0999999
v -0.4 3.5 -0.2
v 2.38419e-07 3.1 0.0999999
v 2.38419e-07 3.1 -0.2
v 2.38419e-07 3.3 0.0999999
v 2.38419e-07 3.3 -0.2
v 0.1 2.1 0.0999999
v 0.1 2.1 -0.2
v 0.1 2.7 0.0999999
v 0.1 2.7 -0.2
v 0.3 1.9 0.0999999
v 0.3 1.9 -0.2
v 0.3 2.1 0.0999999
v 0.3 2.1 -0.2
v 0.3 2.7 0.0999999
v 0.3 2.7 -0.2
v 0.3 2.9 0.0999999
v 0.3 2.9 -0.2
v 0.3 3.3 0.0999999
v 0.3 3.3 -0.2
v 0.3 3.5 0.0999999
v 0.3 3.5 -0.2
v 1.1 2.1 0.0999999
v 1.1 2.1 -0.2
v 1.1 2.7 0.0999999
v 1.1 2.7 -0.2
v 1.1 2.9 0.0999999
v 1.1 2.9 -0.2
v 1.1 3.3 0.0999999
v 1.1 3.3 -0.2
v 1.3 1.9 0.0999999
v 1.3 1.9 -0.3
v 1.3 2 0.0999999
v 1.3 2 -0.2
v 1.3 2 -0.3
v 1.3 3.5 0.0999999
v 1.3 3.5 -0.2
v 1.3 3.7 0.0999999
v 1.3 3.7 -0.2
v 1.4 1.9 -2.9
v 1.4 1.9 -3
v 1.4 2 -2.9
v 1.4 2 -3
v 1.5 2.1 0.0999999
v 1.5 2.1 -0.2
v 1.5 3.5 0.0999999
v 1.5 3.5 -0.2
v 1.5 3.7 0.0999999
v 1.5 3.7 -0.2
v 1.5 3.9 0.0999999
v 1.5 3.9 -0.2
v 1.7 1.9 0.0999999
v 1.7 1.9 -0.2
v 1.7 2.1 0.0999999
v 1.7 2.1 -0.2
v 2.9 0.1 3
v 2.9 0.1 -2.9
v 2.9 6 3
v 2.9 6 -2.9
v -2.9 0.1 3
v -2.9 0.1 -2.9
v -2.9 6 3
v -2.9 6 -2.9
v -1.9 2.1 0.0999999
v -1.9 2.1 -0.2
v -1.9 2.9 0.0999999
v -1.9 2.9 -0.2
v -1.9 3.1 0.0999999
v -1.9 3.1 -0.2
v -1.9 3.9 0.0999999
v -1.9 3.9 -0.2
v -1.2 1.9 0.0999999
v -1.2 1.9 -0.2
v -1.2 2.1 0.0999999
v -1.2 2.1 -0.2
v -1.2 2.9 0.0999999
v -1.2 2.9 -0.2
v -1.2 3.1 0.0999999
v -1.2 3.1 -0.2
v -1 2.1 0.0999999
v -1 2.1 -0.2
v -1 2.9 0.0999999
v -1 2.9 -0.2
v -0.6 1.9 0.0999999
v -0.6 1.9 -0.2
v -0.6 3.1 0.0999999
v -0.6 3.1 -0.2
v -0.6 3.3 0.0999999
v -0.6 3.3 -0.2
v -0.6 3.5 0.0999999
v -0.6 3.5 -0.2
v -0.4 3.1 0.0999999
v -0.4 3.1 -0.2
v -0.4 3.3 0.0999999
v -0.4 3.3 -0.2
v 2.38419e-07 3.3 0.0999999
v 2.38419e-07 3.3 -0.2
v 2.38419e-07 3.5 0.0999999
v 2.38419e-07 3.5 -0.2
v 0.2 3.1 0.0999999
v 0.2 3.1 -0.2
v 0.2 3.3 0.0999999
v 0.2 3.3 -0.2
v 0.3 2.1 0.0999999
v 0.3 2.1 -0.2
v 0.3 2.7 0.0999999
v 0.3 2.7 -0.2
v 1.1 1.9 0.0999999
v 1.1 1.9 -0.2
v 1.1 2 0.0999999
v 1.1 2 -0.2
v 1.1 3.3 0.0999999
v 1.1 3.3 -0.2
v 1.1 3.5 0.0999999
v 1.1 3.5 -0.2
v 1.3 1.9 -2.9
v 1.3 1.9 -3
v 1.3 2 0.0999999
v 1.3 2 -0.2
v 1.3 2 -2.9
v 1.3 2 -3
v 1.3 3.3 0.0999999
v 1.3 3.3 -0.2
v 1.4 1.9 0.0999999
v 1.4 1.9 -0.3
v 1.4 2 0.0999999
v 1.4 2 -0.3
v 1.7 2.1 0.0999999
v 1.7 2.1 -0.2
v 1.7 3.5 0.0999999
v 1.7 3.5 -0.2
v 1.7 3.7 0.0999999
v 1.7 3.7 -0.2
v 1.7 3.9 0.0999999
v 1.7 3.9 -0.2
v 1.9 3.5 0.0999999
v 1.9 3.5 -0.2
v 1.9 3.7 0.0999999
v 1.9 3.7 -0.2
v 2.1 1.9 0.0999999
v 2.1 1.9 -0.2
v 2.1 2.1 0.0999999
v 2.1 2.1 -0.2
v 3 0 3
v 3 0 -3
v 3 6 3
v 3 6 -3
v -3 0 3
v -3 6 3
v -2.9 0.1 3
v -2.9 6 3
v 2.9 0.1 3
v 2.9 6 3
v 3 0 3
v 3 6 3
v -2.1 1.9 0.0999999
v -2.1 3.9 0.0999999
v -1.9 2.1 0.0999999
v -1.9 2.9 0.0999999
v -1.9 3.1 0.0999999
v -1.9 3.9 0.0999999
v -1.2 1.9 0.0999999
v -1.2 2.1 0.0999999
v -1.2 2.9 0.0999999
v -1.2 3.1 0.0999999
v -1 2.1 0.0999999
v -1 2.9 0.0999999
v -0.8 1.9 0.0999999
v -0.8 3.5 0.0999999
v -0.6 1.9 0.0999999
v -0.6 3.1 0.0999999
v -0.6 3.3 0.0999999
v -0.6 3.5 0.0999999
v -0.4 3.1 0.0999999
v -0.4 3.3 0.0999999
v -0.4 3.5 0.0999999
v 2.38419e-07 3.1 0.0999999
v 2.38419e-07 3.3 0.0999999
v 2.38419e-07 3.5 0.0999999
v 0.1 2.1 0.0999999
v 0.1 2.7 0.0999999
v 0.2 3.1 0.0999999
v 0.2 3.3 0.0999999
v 0.3 1.9 0.0999999
v 0.3 2.1 0.0999999
v 0.3 2.7 0.0999999
v 0.3 2.9 0.0999999
v 0.3 3.3 0.0999999
v 0.3 3.5 0.0999999
v 1.1 1.9 0.0999999
v 1.1 2 0.0999999
v 1.1 2.1 0.0999999
v 1.1 2.7 0.0999999
v 1.1 2.9 0.0999999
v 1.1 3.3 0.0999999
v 1.1 3.5 0.0999999
v 1.3 1.9 0.0999999
v 1.3 2 0.0999999
v 1.3 3.3 0.0999999
v 1.3 3.5 0.0999999
v 1.3 3.7 0.0999999
v 1.4 1.9 0.0999999
v 1.4 2 0.0999999
v 1.5 2.1 0.0999999
v 1.5 3.5 0.0999999
v 1.5 3.7 0.0999999
v 1.5 3.9 0.0999999
v 1.7 1.9 0.0999999
v 1.7 2.1 0.0999999
v 1.7 3.5 0.0999999
v 1.7 3.7 0.0999999
v 1.7 3.9 0.0999999
v 1.9 3.5 0.0999999
v 1.9 3.7 0.0999999
v 2.1 1.9 0.0999999
v 2.1 2.1 0.0999999
v -2.9 0.1 -2.9
v -2.9 6 -2.9
v 1.3 1.9 -2.9
v 1.3 2 -2.9
v 1.4 1.9 -2.9
v 1.4 2 -2.9
v 2.9 0.1 -2.9
v 2.9 6 -2.9
v -2.1 1.9 -0.2
v -2.1 3.9 -0.2
v -1.9 2.1 -0.2
v -1.9 2.9 -0.2
v -1.9 3.1 -0.2
v -1.9 3.9 -0.2
v -1.2 1.9 -0.2
v -1.2 2.1 -0.2
v -1.2 2.9 -0.2
v -1.2 3.1 -0.2
v -1 2.1 -0.2
v -1 2.9 -0.2
v -0.8 1.9 -0.2
v -0.8 3.5 -0.2
v -0.6 1.9 -0.2
v -0.6 3.1 -0.2
v -0.6 3.3 -0.2
v -0.6 3.5 -0.2
v -0.4 3.1 -0.2
v -0.4 3.3 -0.2
v -0.4 3.5 -0.2
v 2.38419e-07 3.1 -0.2
v 2.38419e-07 3.3 -0.2
v 2.38419e-07 3.5 -0.2
v 0.1 2.1 -0.2
v 0.1 2.7 -0.2
v 0.2 3.1 -0.2
v 0.2 3.3 -0.2
v 0.3 1.9 -0.2
v 0.3 2.1 -0.2
v 0.3 2.7 -0.2
v 0.3 2.9 -0.2
v 0.3 3.3 -0.2
v 0.3 3.5 -0.2
v 1.1 1.9 -0.2
v 1.1 2 -0.2
v 1.1 2.1 -0.2
v 1.1 2.7 -0.2
v 1.1 2.9 -0.2
v 1.1 3.3 -0.2
v 1.1 3.5 -0.2
v 1.3 2 -0.2
v 1.3 3.3 -0.2
v 1.3 3.5 -0.2
v 1.3 3.7 -0.2
v 1.5 2.1 -0.2
v 1.5 3.5 -0.2
v 1.5 3.7 -0.2
v 1.5 3.9 -0.2
v 1.7 1.9 -0.2
v 1.7 2.1 -0.2
v 1.7 3.5 -0.2
v 1.7 3.7 -0.2
v 1.7 3.9 -0.2
v 1.9 3.5 -0.2
v 1.9 3.7 -0.2
v 2.1 1.9 -0.2
v 2.1 2.1 -0.2
v 1.3 1.9 -0.3
v 1.3 2 -0.3
v 1.4 1.9 -0.3
v 1.4 2 -0.3
v -3 0 -3
v -3 6 -3
v 1.3 1.9 -3
v 1.3 2 -3
v 1.4 1.9 -3
v 1.4 2 -3
v 3 0 -3
v 3 6 -3
v -3 0 3
v 3 0 3
v -3 0 -3
v 3 0 -3
v -2.1 1.9 0.0999999
v -1.2 1.9 0.0999999
v -0.8 1.9 0.0999999
v -0.6 1.9 0.0999999
v 0.3 1.9 0.0999999
v 1.1 1.9 0.0999999
v 1.3 1.9 0.0999999
v 1.4 1.9 0.0999999
v 1.7 1.9 0.0999999
v 2.1 1.9 0.0999999
v -2.1 1.9 -0.2
v -1.2 1.9 -0.2
v -0.8 1.9 -0.2
v -0.6 1.9 -0.2
v 0.3 1.9 -0.2
v 1.1 1.9 -0.2
v 1.7 1.9 -0.2
v 2.1 1.9 -0.2
v 1.3 1.9 -0.3
v 1.4 1.9 -0.3
v 1.1 2 0.0999999
v 1.3 2 0.0999999
v 1.1 2 -0.2
v 1.3 2 -0.2
v 1.3 2 -2.9
v 1.4 2 -2.9
v 1.3 2 -3
v 1.4 2 -3
v -1.2 2.1 0.0999999
v -1 2.1 0.0999999
v 0.1 2.1 0.0999999
v 0.3 2.1 0.0999999
v 1.5 2.1 0.0999999
v 1.7 2.1 0.0999999
v -1.2 2.1 -0.2
v -1 2.1 -0.2
v 0.1 2.1 -0.2
v 0.3 2.1 -0.2
v 1.5 2.1 -0.2
v 1.7 2.1 -0.2
v 0.3 2.7 0.0999999
v 1.1 2.7 0.0999999
v 0.3 2.7 -0.2
v 1.1 2.7 -0.2
v -1.9 2.9 0.0999999
v -1.2 2.9 0.0999999
v -1.9 2.9 -0.2
v -1.2 2.9 -0.2
v -0.6 3.1 0.0999999
v -0.4 3.1 0.0999999
v 2.38419e-07 3.1 0.0999999
v 0.2 3.1 0.0999999
v -0.6 3.1 -0.2
v -0.4 3.1 -0.2
v 2.38419e-07 3.1 -0.2
v 0.2 3.1 -0.2
v -0.4 3.3 0.0999999
v 2.38419e-07 3.3 0.0999999
v 0.3 3.3 0.0999999
v 1.1 3.3 0.0999999
v -0.4 3.3 -0.2
v 2.38419e-07 3.3 -0.2
v 0.3 3.3 -0.2
v 1.1 3.3 -0.2
v 1.3 3.5 0.0999999
v 1.5 3.5 0.0999999
v 1.7 3.5 0.0999999
v 1.9 3.5 0.0999999
v 1.3 3.5 -0.2
v 1.5 3.5 -0.2
v 1.7 3.5 -0.2
v 1.9 3.5 -0.2
v -2.9 0.1 3
v 2.9 0.1 3
v -2.9 0.1 -2.9
v 2.9 0.1 -2.9
v 1.3 1.9 -2.9
v 1.4 1.9 -2.9
v 1.3 1.9 -3
v 1.4 1.9 -3
v 1.3 2 0.0999999
v 1.4 2 0.0999999
v 1.3 2 -0.2
v 1.3 2 -0.3
v 1.4 2 -0.3
v -1.9 2.1 0.0999999
v -1.2 2.1 0.0999999
v 0.3 2.1 0.0999999
v 1.1 2.1 0.0999999
v 1.7 2.1 0.0999999
v 2.1 2.1 0.0999999
v -1.9 2.1 -0.2
v -1.2 2.1 -0.2
v 0.3 2.1 -0.2
v 1.1 2.1 -0.2
v 1.7 2.1 -0.2
v 2.1 2.1 -0.2
v 0.1 2.7 0.0999999
v 0.3 2.7 0.0999999
v 0.1 2.7 -0.2
v 0.3 2.7 -0.2
v -1.2 2.9 0.0999999
v -1 2.9 0.0999999
v 0.3 2.9 0.0999999
v 1.1 2.9 0.0999999
v -1.2 2.9 -0.2
v -1 2.9 -0.2
v 0.3 2.9 -0.2
v 1.1 2.9 -0.2
v -1.9 3.1 0.0999999
v -1.2 3.1 0.0999999
v -1.9 3.1 -0.2
v -1.2 3.1 -0.2
v -0.6 3.3 0.0999999
v -0.4 3.3 0.0999999
v 2.38419e-07 3.3 0.0999999
v 0.2 3.3 0.0999999
v 1.1 3.3 0.0999999
v 1.3 3.3 0.0999999
v -0.6 3.3 -0.2
v -0.4 3.3 -0.2
v 2.38419e-07 3.3 -0.2
v 0.2 3.3 -0.2
v 1.1 3.3 -0.2
v 1.3 3.3 -0.2
v -0.8 3.5 0.0999999
v -0.6 3.5 0.0999999
v -0.4 3.5 0.0999999
v 2.38419e-07 3.5 0.0999999
v 0.3 3.5 0.0999999
v 1.1 3.5 0.0999999
v -0.8 3.5 -0.2
v -0.6 3.5 -0.2
v -0.4 3.5 -0.2
v 2.38419e-07 3.5 -0.2
v 0.3 3.5 -0.2
v 1.1 3.5 -0.2
v 1.3 3.7 0.0999999
v 1.5 3.7 0.0999999
v 1.7 3.7 0.0999999
v 1.9 3.7 0.0999999
v 1.3 3.7 -0.2
v 1.5 3.7 -0.2
v 1.7 3.7 -0.2
v 1.9 3.7 -0.2
v -2.1 3.9 0.0999999
v -1.9 3.9 0.0999999
v 1.5 3.9 0.0999999
v 1.7 3.9 0.0999999
v -2.1 3.9 -0.2
v -1.9 3.9 -0.2
v 1.5 3.9 -0.2
v 1.7 3.9 -0.2
v -3 6 3
v -2.9 6 3
v 2.9 6 3
v 3 6 3
v -2.9 6 -2.9
v 2.9 6 -2.9
v -3 6 -3
v 3 6 -3

# faces
f 3/1/1 2/1/1 1/1/1
f 4/1/1 2/1/1 3/1/1
f 7/2/1 6/2/1 5/2/1
f 8/2/1 6/2/1 7/2/1
f 11/2/1 10/2/1 9/2/1
f 12/2/1 10/2/1 11/2/1
f 15/2/1 14/2/1 13/2/1
f 16/2/1 14/2/1 15/2/1
f 19/2/1 18/2/1 17/2/1
f 20/2/1 18/2/1 19/2/1
f 23/2/1 22/2/1 21/2/1
f 24/2/1 22/2/1 23/2/1
f 27/2/1 26/2/1 25/2/1
f 28/2/1 26/2/1 27/2/1
f 31/2/1 30/2/1 29/2/1
f 32/2/1 30/2/1 31/2/1
f 35/2/1 34/2/1 33/2/1
f 36/2/1 34/2/1 35/2/1
f 39/2/1 38/2/1 37/2/1
f 40/2/1 38/2/1 39/2/1
f 43/2/1 42/2/1 41/2/1
f 44/2/1 42/2/1 43/2/1
f 47/2/1 46/2/1 45/2/1
f 48/2/1 46/2/1 47/2/1
f 51/2/1 50/2/1 49/2/1
f 52/2/1 50/2/1 51/2/1
f 53/2/1 50/2/1 52/2/1
f 56/2/1 55/2/1 54/2/1
f 57/2/1 55/2/1 56/2/1
f 60/1/1 59/1/1 58/1/1
f 61/1/1 59/1/1 60/1/1
f 64/2/1 63/2/1 62/2/1
f 65/2/1 63/2/1 64/2/1
f 68/2/1 67/2/1 66/2/1
f 69/2/1 67/2/1 68/2/1
f 72/2/1 71/2/1 70/2/1
f 73/2/1 71/2/1 72/2/1
f 76/1/1 75/1/1 74/1/1
f 77/1/1 75/1/1 76/1/1
f 78/1/2 79/1/2 80/1/2
f 80/1/2 79/1/2 81/1/2
f 82/2/2 83/2/2 84/2/2
f 84/2/2 83/2/2 85/2/2
f 86/2/2 87/2/2 88/2/2
f 88/2/2 87/2/2 89/2/2
f 90/2/2 91/2/2 92/2/2
f 92/2/2 91/2/2 93/2/2
f 94/2/2 95/2/2 96/2/2
f 96/2/2 95/2/2 97/2/2
f 98/2/2 99/2/2 100/2/2
f 100/2/2 99/2/2 101/2/2
f 102/2/2 103/2/2 104/2/2
f 104/2/2 103/2/2 105/2/2
f 106/2/2 107/2/2 108/2/2
f 108/2/2 107/2/2 109/2/2
f 110/2/2 111/2/2 112/2/2
f 112/2/2 111/2/2 113/2/2
f 114/2/2 115/2/2 116/2/2
f 116/2/2 115/2/2 117/2/2
f 118/2/2 119/2/2 120/2/2
f 120/2/2 119/2/2 121/2/2
f 122/2/2 123/2/2 124/2/2
f 124/2/2 123/2/2 125/2/2
f 126/2/2 127/2/2 128/2/2
f 128/2/2 127/2/2 129/2/2
f 130/2/2 131/2/2 132/2/2
f 132/2/2 131/2/2 133/2/2
f 134/1/2 135/1/2 138/1/2
f 138/1/2 135/1/2 139/1/2
f 136/2/2 137/2/2 140/2/2
f 140/2/2 137/2/2 141/2/2
f 142/2/2 143/2/2 144/2/2
f 144/2/2 143/2/2 145/2/2
f 146/2/2 147/2/2 148/2/2
f 148/2/2 147/2/2 149/2/2
f 150/2/2 151/2/2 152/2/2
f 152/2/2 151/2/2 153/2/2
f 154/2/2 155/2/2 156/2/2
f 156/2/2 155/2/2 157/2/2
f 158/2/2 159/2/2 160/2/2
f 160/2/2 159/2/2 161/2/2
f 162/1/2 163/1/2 164/1/2
f 164/1/2 163/1/2 165/1/2
f 168/1/3 167/1/3 166/1/3
f 169/1/3 167/1/3 168/1/3
f 170/1/3 168/1/3 166/1/3
f 172/1/3 170/1/3 166/1/3
f 172/1/3 171/1/3 170/1/3
f 173/1/3 171/1/3 172/1/3
f 176/2/3 175/2/3 174/2/3
f 177/2/3 175/2/3 176/2/3
f 178/2/3 175/2/3 177/2/3
f 179/2/3 175/2/3 178/2/3
f 180/2/3 176/2/3 174/2/3
f 181/2/3 176/2/3 180/2/3
f 182/2/3 178/2/3 177/2/3
f 183/2/3 178/2/3 182/2/3
f 184/2/3 182/2/3 181/2/3
f 185/2/3 182/2/3 184/2/3
f 188/2/3 187/2/3 186/2/3
f 189/2/3 187/2/3 188/2/3
f 190/2/3 187/2/3 189/2/3
f 191/2/3 187/2/3 190/2/3
f 192/2/3 190/2/3 189/2/3
f 193/2/3 190/2/3 192/2/3
f 196/2/3 194/2/3 193/2/3
f 197/2/3 194/2/3 196/2/3
f 200/2/3 196/2/3 195/2/3
f 201/2/3 196/2/3 200/2/3
f 203/2/3 199/2/3 198/2/3
f 204/2/3 199/2/3 203/2/3
f 208/2/3 203/2/3 202/2/3
f 209/2/3 203/2/3 208/2/3
f 210/2/3 203/2/3 209/2/3
f 211/2/3 205/2/3 204/2/3
f 212/2/3 205/2/3 211/2/3
f 213/2/3 207/2/3 206/2/3
f 214/2/3 207/2/3 213/2/3
f 216/2/3 210/2/3 209/2/3
f 216/2/3 213/2/3 212/2/3
f 216/2/3 212/2/3 211/2/3
f 216/2/3 211/2/3 210/2/3
f 217/2/3 213/2/3 216/2/3
f 220/2/3 216/2/3 215/2/3
f 221/2/3 216/2/3 220/2/3
f 223/2/3 219/2/3 218/2/3
f 224/2/3 219/2/3 223/2/3
f 227/2/3 223/2/3 222/2/3
f 227/2/3 225/2/3 224/2/3
f 227/2/3 224/2/3 223/2/3
f 228/2/3 225/2/3 227/2/3
f 229/2/3 225/2/3 228/2/3
f 230/2/3 225/2/3 229/2/3
f 231/2/3 229/2/3 228/2/3
f 232/2/3 229/2/3 231/2/3
f 233/2/3 227/2/3 226/2/3
f 234/2/3 227/2/3 233/2/3
f 237/1/3 236/1/3 235/1/3
f 238/1/3 236/1/3 237/1/3
f 239/1/3 237/1/3 235/1/3
f 240/1/3 236/1/3 238/1/3
f 241/1/3 239/1/3 235/1/3
f 241/1/3 240/1/3 239/1/3
f 242/1/3 236/1/3 240/1/3
f 242/1/3 240/1/3 241/1/3
f 243/2/4 244/2/4 245/2/4
f 245/2/4 244/2/4 246/2/4
f 246/2/4 244/2/4 247/2/4
f 247/2/4 244/2/4 248/2/4
f 243/2/4 245/2/4 249/2/4
f 249/2/4 245/2/4 250/2/4
f 246/2/4 247/2/4 251/2/4
f 251/2/4 247/2/4 252/2/4
f 250/2/4 251/2/4 253/2/4
f 253/2/4 251/2/4 254/2/4
f 255/2/4 256/2/4 257/2/4
f 257/2/4 256/2/4 258/2/4
f 258/2/4 256/2/4 259/2/4
f 259/2/4 256/2/4 260/2/4
f 258/2/4 259/2/4 261/2/4
f 261/2/4 259/2/4 262/2/4
f 262/2/4 263/2/4 265/2/4
f 265/2/4 263/2/4 266/2/4
f 264/2/4 265/2/4 269/2/4
f 269/2/4 265/2/4 270/2/4
f 267/2/4 268/2/4 272/2/4
f 272/2/4 268/2/4 273/2/4
f 271/2/4 272/2/4 277/2/4
f 277/2/4 272/2/4 278/2/4
f 278/2/4 272/2/4 279/2/4
f 273/2/4 274/2/4 280/2/4
f 280/2/4 274/2/4 281/2/4
f 275/2/4 276/2/4 282/2/4
f 282/2/4 276/2/4 283/2/4
f 278/2/4 279/2/4 284/2/4
f 280/2/4 281/2/4 284/2/4
f 281/2/4 282/2/4 284/2/4
f 279/2/4 280/2/4 284/2/4
f 284/2/4 282/2/4 285/2/4
f 286/2/4 287/2/4 289/2/4
f 289/2/4 287/2/4 290/2/4
f 288/2/4 289/2/4 293/2/4
f 290/2/4 291/2/4 293/2/4
f 289/2/4 290/2/4 293/2/4
f 293/2/4 291/2/4 294/2/4
f 294/2/4 291/2/4 295/2/4
f 295/2/4 291/2/4 296/2/4
f 294/2/4 295/2/4 297/2/4
f 297/2/4 295/2/4 298/2/4
f 292/2/4 293/2/4 299/2/4
f 299/2/4 293/2/4 300/2/4
f 301/2/4 302/2/4 303/2/4
f 303/2/4 302/2/4 304/2/4
f 305/1/4 306/1/4 307/1/4
f 307/1/4 306/1/4 308/1/4
f 305/1/4 307/1/4 309/1/4
f 308/1/4 306/1/4 310/1/4
f 305/1/4 309/1/4 311/1/4
f 309/1/4 310/1/4 311/1/4
f 310/1/4 306/1/4 312/1/4
f 311/1/4 310/1/4 312/1/4
f 315/1/5 314/1/5 313/1/5
f 316/1/5 314/1/5 315/1/5
f 327/2/5 318/2/5 317/2/5
f 328/2/5 318/2/5 327/2/5
f 329/2/5 320/2/5 319/2/5
f 330/2/5 320/2/5 329/2/5
f 331/2/5 322/2/5 321/2/5
f 332/2/5 322/2/5 331/2/5
f 333/2/5 326/2/5 325/2/5
f 334/2/5 326/2/5 333/2/5
f 335/2/5 324/2/5 323/2/5
f 336/2/5 324/2/5 335/2/5
f 339/2/5 338/2/5 337/2/5
f 340/2/5 338/2/5 339/2/5
f 343/1/5 342/1/5 341/1/5
f 344/1/5 342/1/5 343/1/5
f 351/2/5 346/2/5 345/2/5
f 352/2/5 346/2/5 351/2/5
f 353/2/5 348/2/5 347/2/5
f 354/2/5 348/2/5 353/2/5
f 355/2/5 350/2/5 349/2/5
f 356/2/5 350/2/5 355/2/5
f 359/2/5 358/2/5 357/2/5
f 360/2/5 358/2/5 359/2/5
f 363/2/5 362/2/5 361/2/5
f 364/2/5 362/2/5 363/2/5
f 369/2/5 366/2/5 365/2/5
f 370/2/5 366/2/5 369/2/5
f 371/2/5 368/2/5 367/2/5
f 372/2/5 368/2/5 371/2/5
f 377/2/5 374/2/5 373/2/5
f 378/2/5 374/2/5 377/2/5
f 379/2/5 376/2/5 375/2/5
f 380/2/5 376/2/5 379/2/5
f 385/2/5 382/2/5 381/2/5
f 386/2/5 382/2/5 385/2/5
f 387/2/5 384/2/5 383/2/5
f 388/2/5 384/2/5 387/2/5
f 389/1/6 390/1/6 391/1/6
f 391/1/6 390/1/6 392/1/6
f 393/1/6 394/1/6 395/1/6
f 395/1/6 394/1/6 396/1/6
f 397/2/6 398/2/6 399/2/6
f 399/2/6 398/2/6 400/2/6
f 400/2/6 398/2/6 401/2/6
f 402/2/6 403/2/6 408/2/6
f 408/2/6 403/2/6 409/2/6
f 404/2/6 405/2/6 410/2/6
f 410/2/6 405/2/6 411/2/6
f 406/2/6 407/2/6 412/2/6
f 412/2/6 407/2/6 413/2/6
f 414/2/6 415/2/6 416/2/6
f 416/2/6 415/2/6 417/2/6
f 418/2/6 419/2/6 422/2/6
f 422/2/6 419/2/6 423/2/6
f 420/2/6 421/2/6 424/2/6
f 424/2/6 421/2/6 425/2/6
f 426/2/6 427/2/6 428/2/6
f 428/2/6 427/2/6 429/2/6
f 430/2/6 431/2/6 436/2/6
f 436/2/6 431/2/6 437/2/6
f 432/2/6 433/2/6 438/2/6
f 438/2/6 433/2/6 439/2/6
f 434/2/6 435/2/6 440/2/6
f 440/2/6 435/2/6 441/2/6
f 442/2/6 443/2/6 448/2/6
f 448/2/6 443/2/6 449/2/6
f 444/2/6 445/2/6 450/2/6
f 450/2/6 445/2/6 451/2/6
f 446/2/6 447/2/6 452/2/6
f 452/2/6 447/2/6 453/2/6
f 454/2/6 455/2/6 458/2/6
f 458/2/6 455/2/6 459/2/6
f 456/2/6 457/2/6 460/2/6
f 460/2/6 457/2/6 461/2/6
f 462/2/6 463/2/6 466/2/6
f 466/2/6 463/2/6 467/2/6
f 464/2/6 465/2/6 468/2/6
f 468/2/6 465/2/6 469/2/6
f 470/1/6 471/1/6 474/1/6
f 472/1/6 473/1/6 475/1/6
f 470/1/6 474/1/6 476/1/6
f 474/1/6 475/1/6 476/1/6
f 475/1/6 473/1/6 477/1/6
f 476/1/6 475/1/6 477/1/6
